# xmcd
#
# Track frame offsets: 
#        150
#        15260
#        28970
#        43303
#        59995
#        72518
#        84080
#        96853
#        115698
#        128565
#        141348
#        158810
#        168760
#        180990
#        198868
#        211960
#        224770
#        238985
#        251445
#        264330
#        278175
#        287815
#
# Disc length: 4107 seconds
#
# Revision: 2
# Processed by: cddbd v1.5.1PL2 Copyright (c) Steve Scherf et al.
# Submitted via: ExactAudioCopy v0.95b4
#
DISCID=47100916
DTITLE=Mike Auldridge - Dobro and Blues And Bluegrass
DYEAR=1974
DGENRE=Acoustic
TTITLE0=Tennessee Stud
TTITLE1=It's Over
TTITLE2=Dobro Island
TTITLE3=Train 45 1/2
TTITLE4=Take Me
TTITLE5=Rock Bottom
TTITLE6=Jamboree
TTITLE7=House Of The Rising Sun
TTITLE8=Rolling Fog
TTITLE9=Greensleeves
TTITLE10=Silver Threads Among The Gold
TTITLE11=New Camptown Races
TTITLE12=Mexican Rose
TTITLE13=The Sum Of Marcy's Blues
TTITLE14=Killing Me Softly With His Song
TTITLE15=This Ain't Grass
TTITLE16=Summertime
TTITLE17=8 More Miles To Louisville
TTITLE18=Bottom Dollar
TTITLE19=Walk Don't Run
TTITLE20=Struttin' The Blues
TTITLE21=Everybody Slides
EXTD=
EXTT0=
EXTT1=
EXTT2=
EXTT3=
EXTT4=
EXTT5=
EXTT6=
EXTT7=
EXTT8=
EXTT9=
EXTT10=
EXTT11=
EXTT12=
EXTT13=
EXTT14=
EXTT15=
EXTT16=
EXTT17=
EXTT18=
EXTT19=
EXTT20=
EXTT21=
PLAYORDER=
